<?xml version="1.0" standalone="no"?>
<!DOCTYPE svg PUBLIC "-//W3C//DTD SVG 20010904//EN"
 "http://www.w3.org/TR/2001/REC-SVG-20010904/DTD/svg10.dtd">
<svg version="1.0" xmlns="http://www.w3.org/2000/svg"
 width="900.000000pt" height="600.000000pt" viewBox="0 0 900.000000 600.000000"
 preserveAspectRatio="xMidYMid meet">

<g transform="translate(0.000000,600.000000) scale(0.100000,-0.100000)"
fill="#000000" stroke="none">
<path d="M1887 3478 c-16 -12 -17 -49 -15 -468 l3 -455 113 -3 112 -3 0 465
c0 414 -2 465 -16 470 -29 11 -180 6 -197 -6z m193 -458 l0 -450 -95 0 -95 0
0 450 0 450 95 0 95 0 0 -450z"/>
<path d="M4906 3474 c-14 -14 -16 -69 -16 -454 0 -241 3 -445 6 -454 5 -13 25
-16 115 -16 l109 0 0 464 c0 414 -2 465 -16 470 -9 3 -53 6 -99 6 -63 0 -88
-4 -99 -16z m194 -454 l0 -450 -95 0 -95 0 0 443 c0 244 3 447 7 450 3 4 46 7
95 7 l88 0 0 -450z"/>
<path d="M7597 3478 c-16 -12 -17 -49 -15 -468 l3 -455 68 -3 67 -3 0 464 c0
517 6 477 -69 477 -20 0 -45 -6 -54 -12z m103 -458 l0 -450 -50 0 -50 0 0 450
0 450 50 0 50 0 0 -450z"/>
<path d="M8306 3474 c-13 -13 -16 -42 -16 -165 l0 -149 -42 22 c-131 69 -316
0 -377 -141 -67 -157 -36 -366 67 -451 90 -75 250 -76 333 -3 15 12 17 11 23
-12 6 -23 10 -25 70 -25 49 0 65 4 70 16 3 9 6 213 6 454 0 494 4 470 -75 470
-26 0 -50 -6 -59 -16z m112 -456 l2 -448 -55 0 -55 0 0 41 0 41 -28 -29 c-89
-96 -249 -97 -343 -3 -62 62 -84 126 -83 245 2 191 94 310 248 322 75 6 125
-8 172 -49 l34 -30 0 174 c0 96 3 178 7 182 4 4 28 6 53 4 l45 -3 3 -447z"/>
<path d="M8060 3081 c-19 -10 -48 -39 -64 -65 -24 -38 -30 -61 -34 -124 -5
-91 9 -149 45 -193 61 -72 173 -79 242 -16 45 42 61 93 61 203 0 114 -14 147
-79 191 -43 29 -121 31 -171 4z m164 -20 c55 -37 66 -66 66 -181 0 -92 -3
-110 -23 -143 -33 -54 -72 -77 -131 -77 -64 0 -108 28 -136 86 -19 39 -22 58
-18 133 5 99 23 142 78 178 43 30 122 31 164 4z"/>
<path d="M3963 3461 c-45 -28 -58 -58 -54 -128 2 -40 57 -91 105 -98 88 -14
151 39 151 127 0 40 -5 53 -32 79 -42 42 -120 51 -170 20z m143 -19 c79 -63
45 -178 -56 -189 -110 -11 -170 113 -88 182 36 31 111 34 144 7z"/>
<path d="M652 3435 c-102 -29 -165 -72 -229 -158 -96 -131 -117 -329 -53 -499
92 -246 486 -330 695 -147 44 39 95 106 95 125 0 16 -150 94 -179 94 -10 0
-31 -16 -45 -35 -37 -48 -74 -65 -146 -65 -101 0 -177 54 -201 143 -17 62 -7
183 19 233 71 139 261 152 328 23 8 -16 20 -29 26 -29 27 0 180 65 186 78 18
48 -110 186 -206 222 -74 29 -215 36 -290 15z m249 -21 c95 -27 179 -97 227
-190 11 -20 6 -23 -75 -54 -83 -32 -88 -32 -98 -14 -22 40 -73 82 -110 93 -60
16 -95 13 -152 -14 -92 -42 -139 -141 -131 -276 5 -92 34 -150 96 -194 38 -26
54 -30 120 -33 65 -2 83 1 117 20 22 13 49 37 60 54 l21 31 82 -38 c45 -21 82
-41 82 -45 0 -15 -66 -92 -106 -123 -87 -66 -225 -95 -348 -72 -225 42 -353
220 -331 461 14 161 77 275 195 350 89 57 241 76 351 44z"/>
<path d="M3555 3362 l-80 -17 -3 -72 -3 -73 -30 0 c-60 0 -69 -13 -69 -95 0
-82 9 -95 69 -95 l31 0 0 -152 c0 -173 8 -214 52 -263 59 -67 194 -83 294 -34
69 33 69 51 0 134 -32 38 -35 39 -59 26 -52 -28 -57 -16 -57 144 l0 145 54 0
c86 0 86 0 86 95 0 95 0 95 -85 95 l-54 0 -3 88 -3 87 -30 2 c-16 1 -66 -6
-110 -15z m125 -92 l0 -90 70 0 70 0 0 -75 0 -75 -70 0 -70 0 0 -153 c0 -191
8 -206 90 -174 18 7 84 -77 77 -97 -11 -28 -81 -51 -157 -51 -96 0 -145 23
-177 85 -21 40 -23 55 -23 217 l0 173 -50 0 -50 0 0 75 0 75 50 0 50 0 0 74 0
75 53 10 c28 5 61 12 72 14 65 15 65 15 65 -83z"/>
<path d="M1399 3196 c-85 -23 -189 -100 -189 -141 0 -13 125 -95 143 -95 4 0
23 15 41 34 38 38 82 50 125 35 26 -9 50 -43 39 -54 -2 -2 -41 -8 -86 -14
-113 -14 -152 -26 -199 -60 -77 -56 -105 -176 -61 -261 52 -102 193 -139 306
-81 35 18 41 18 46 5 5 -12 24 -14 108 -12 l103 3 3 214 c3 257 -6 301 -72
367 -67 67 -191 92 -307 60z m247 -37 c34 -18 58 -40 79 -74 l30 -48 3 -234 3
-233 -90 0 c-90 0 -91 0 -91 25 l0 24 -49 -30 c-181 -113 -387 41 -302 226 38
82 92 110 246 127 97 10 105 13 105 32 0 55 -67 94 -129 76 -19 -5 -49 -23
-66 -40 l-32 -31 -62 36 c-33 20 -61 40 -61 44 0 11 72 76 102 92 87 47 232
50 314 8z"/>
<path d="M1453 2820 c-47 -11 -63 -28 -63 -66 0 -58 66 -82 130 -49 33 17 60
61 60 100 0 23 -3 25 -47 24 -27 -1 -63 -5 -80 -9z m107 -31 c0 -31 -53 -79
-88 -79 -47 0 -62 10 -62 40 0 43 26 57 108 59 36 1 42 -2 42 -20z"/>
<path d="M2385 3192 c-135 -47 -215 -170 -215 -332 0 -171 86 -282 249 -320
68 -16 167 -7 229 20 54 24 132 96 132 121 0 11 -27 33 -71 58 -39 23 -74 41
-78 41 -4 0 -16 -9 -27 -21 -59 -65 -156 -64 -190 2 -8 16 -14 30 -14 33 0 3
87 7 193 8 l192 3 3 60 c4 68 -12 153 -38 206 -59 115 -224 170 -365 121z
m238 -27 c93 -44 137 -123 145 -257 l5 -88 -197 0 c-216 0 -213 1 -181 -61 19
-37 70 -69 108 -69 37 0 94 27 112 53 13 19 15 19 79 -17 36 -20 68 -40 70
-45 9 -13 -71 -81 -123 -105 -37 -17 -65 -21 -141 -21 -84 0 -102 3 -152 28
-116 57 -164 152 -156 307 4 65 11 97 31 136 32 64 106 130 166 149 61 20 183
14 234 -10z"/>
<path d="M2450 3048 c-26 -14 -70 -73 -70 -94 0 -11 24 -14 106 -14 l107 0 -6
37 c-4 20 -15 45 -25 55 -24 24 -81 32 -112 16z m95 -33 c46 -45 35 -55 -61
-55 l-85 0 17 29 c32 54 90 66 129 26z"/>
<path d="M3008 3198 c-49 -13 -116 -72 -139 -122 -21 -46 -24 -120 -8 -163 25
-68 94 -113 208 -137 84 -17 101 -27 80 -52 -10 -12 -26 -15 -71 -12 -46 3
-65 11 -97 36 -22 18 -44 32 -50 32 -10 0 -65 -65 -96 -112 -17 -27 -17 -28
16 -58 73 -66 222 -96 333 -66 114 31 176 106 176 212 0 127 -72 195 -232 219
-26 4 -55 13 -65 21 -17 13 -17 15 2 30 24 18 75 11 121 -17 17 -10 38 -19 45
-18 8 0 36 27 63 61 55 67 54 78 -3 111 -71 42 -198 58 -283 35z m243 -35 c73
-33 76 -42 27 -102 -23 -28 -45 -51 -49 -51 -4 0 -24 9 -43 21 -47 27 -124 30
-142 4 -30 -40 -5 -62 90 -80 150 -29 206 -81 206 -192 0 -70 -13 -104 -57
-144 -54 -51 -91 -63 -188 -64 -102 0 -172 19 -224 63 l-33 27 32 40 c18 22
38 48 45 58 12 17 15 16 59 -14 38 -27 58 -34 110 -37 60 -4 65 -3 82 23 16
25 16 27 -2 45 -11 11 -51 26 -92 35 -143 30 -194 75 -200 180 -6 99 38 165
137 202 50 19 185 11 242 -14z"/>
<path d="M4427 3199 c-79 -19 -197 -103 -197 -142 0 -14 125 -97 146 -97 4 0
22 15 40 34 37 38 79 50 123 35 26 -9 50 -43 39 -54 -2 -2 -41 -8 -86 -14
-113 -14 -152 -26 -199 -60 -55 -40 -78 -91 -78 -171 0 -81 26 -128 93 -168
62 -36 165 -38 229 -4 35 18 42 19 47 6 5 -12 24 -14 108 -12 l103 3 0 240 c0
228 -1 242 -22 281 -58 109 -197 158 -346 123z m238 -40 c35 -18 59 -39 80
-74 l30 -48 3 -234 3 -233 -90 0 c-90 0 -91 0 -91 25 l0 24 -49 -30 c-179
-112 -384 40 -303 224 37 84 106 117 280 132 70 7 72 8 72 34 0 31 -32 65 -71
74 -38 9 -88 -8 -124 -43 l-32 -31 -61 37 c-34 20 -62 40 -62 44 0 10 73 75
102 91 87 47 231 51 313 8z"/>
<path d="M4473 2820 c-47 -11 -63 -28 -63 -66 0 -58 66 -82 130 -49 33 17 60
61 60 100 0 23 -3 25 -47 24 -27 -1 -63 -5 -80 -9z m107 -31 c0 -33 -53 -79
-92 -79 -39 0 -58 15 -58 46 0 36 29 51 108 53 36 1 42 -2 42 -20z"/>
<path d="M6638 3196 c-138 -37 -222 -160 -222 -326 -1 -148 62 -260 176 -311
74 -33 200 -33 275 0 65 29 133 100 159 166 29 77 27 242 -5 312 -62 139 -218
203 -383 159z m208 -21 c112 -33 175 -129 182 -275 8 -156 -42 -258 -150 -313
-106 -55 -242 -45 -335 23 -83 61 -126 200 -103 330 28 156 136 247 296 249
33 1 83 -6 110 -14z"/>
<path d="M6655 3086 c-41 -18 -92 -77 -104 -123 -17 -61 -13 -163 8 -208 35
-76 95 -115 177 -115 129 0 208 112 190 270 -15 123 -81 190 -187 190 -30 -1
-68 -7 -84 -14z m175 -28 c54 -37 75 -89 75 -188 0 -143 -53 -210 -165 -210
-117 0 -180 73 -180 208 0 140 60 212 176 212 47 0 69 -5 94 -22z"/>
<path d="M7380 3199 c-14 -6 -37 -22 -52 -36 l-28 -27 0 26 c0 29 -16 38 -69
38 -74 0 -72 12 -69 -335 l3 -310 66 -3 67 -3 4 203 c3 183 6 207 25 243 32
61 57 79 115 81 57 3 63 9 72 68 6 32 3 43 -10 53 -21 15 -88 16 -124 2z m116
-40 c-3 -17 -6 -39 -6 -48 0 -13 -10 -16 -49 -16 -62 0 -96 -24 -130 -91 -24
-46 -26 -60 -29 -241 l-4 -193 -49 0 -49 0 0 305 0 305 50 0 50 0 0 -57 0 -57
29 45 c34 54 79 78 145 79 l49 0 -7 -31z"/>
<path d="M3937 3188 c-16 -12 -17 -40 -15 -323 l3 -310 110 0 110 0 3 309 c2
219 -1 313 -9 322 -15 18 -178 19 -202 2z m193 -313 l0 -305 -95 0 -95 0 0
305 0 305 95 0 95 0 0 -305z"/>
<path d="M5510 3190 c-12 -7 -1 -54 73 -300 49 -160 92 -302 97 -316 9 -22 15
-24 73 -24 l63 0 64 206 c35 114 66 200 69 193 3 -8 30 -99 61 -204 l55 -190
67 -3 67 -3 30 98 c101 330 151 504 151 521 0 11 -7 23 -16 26 -23 9 -87 7
-102 -3 -7 -4 -37 -99 -67 -211 -30 -112 -56 -208 -58 -213 -2 -6 -29 84 -61
199 -31 115 -62 214 -68 221 -11 14 -86 17 -105 5 -7 -4 -40 -98 -74 -207 -33
-110 -64 -203 -68 -208 -4 -4 -32 83 -62 194 -30 111 -60 208 -67 216 -15 15
-99 18 -122 3z m181 -260 c66 -241 67 -244 78 -205 6 22 40 132 74 245 l63
205 46 3 c45 3 47 2 56 -30 5 -18 35 -130 68 -249 l59 -215 65 245 66 246 49
0 c28 0 49 -4 49 -10 -1 -5 -41 -142 -90 -303 l-87 -293 -55 3 -55 3 -65 228
-65 229 -71 -229 -71 -228 -54 0 -53 0 -84 275 c-46 151 -86 288 -90 303 l-6
28 54 -3 53 -3 66 -245z"/>
<path d="M8575 2670 c-77 -30 -57 -143 25 -143 41 0 73 32 73 73 0 50 -53 88
-98 70z"/>
</g>
</svg>
