<?xml version="1.0" standalone="no"?>
<!DOCTYPE svg PUBLIC "-//W3C//DTD SVG 20010904//EN"
 "http://www.w3.org/TR/2001/REC-SVG-20010904/DTD/svg10.dtd">
<svg version="1.0" xmlns="http://www.w3.org/2000/svg"
 width="900.000000pt" height="600.000000pt" viewBox="0 0 900.000000 600.000000"
 preserveAspectRatio="xMidYMid meet">
<metadata>
Created by potrace 1.16, written by Peter Selinger 2001-2019
</metadata>
<g transform="translate(0.000000,600.000000) scale(0.100000,-0.100000)"
fill="#000000" stroke="none">
<path d="M1877 3483 c-4 -3 -7 -212 -7 -463 0 -341 3 -459 12 -468 16 -16 200
-16 216 0 17 17 17 909 0 926 -13 13 -209 18 -221 5z m203 -463 l0 -450 -95 0
-95 0 0 450 0 450 95 0 95 0 0 -450z"/>
<path d="M3974 3472 c-70 -33 -94 -119 -51 -183 28 -42 60 -59 115 -59 82 0
132 48 132 127 -1 101 -100 159 -196 115z m132 -30 c79 -63 45 -178 -56 -189
-110 -11 -170 113 -88 182 36 31 111 34 144 7z"/>
<path d="M4897 3483 c-4 -3 -7 -212 -7 -463 0 -341 3 -459 12 -468 16 -16 200
-16 216 0 17 17 17 909 0 926 -13 13 -209 18 -221 5z m203 -463 l0 -450 -95 0
-95 0 0 443 c0 244 3 447 7 450 3 4 46 7 95 7 l88 0 0 -450z"/>
<path d="M7587 3483 c-4 -3 -7 -212 -7 -463 0 -341 3 -459 12 -468 7 -7 35
-12 63 -12 28 0 56 5 63 12 17 17 17 909 0 926 -13 13 -120 17 -131 5z m113
-463 l0 -450 -50 0 -50 0 0 450 0 450 50 0 50 0 0 -450z"/>
<path d="M8297 3484 c-4 -4 -7 -76 -7 -161 0 -84 -1 -153 -3 -153 -1 0 -20 9
-42 20 -60 31 -175 28 -243 -6 -64 -32 -115 -89 -144 -163 -18 -45 -22 -77
-23 -166 0 -99 3 -116 26 -165 29 -60 76 -113 123 -137 18 -10 65 -18 111 -21
73 -3 85 -1 136 25 55 28 56 28 65 8 7 -16 20 -21 65 -23 39 -2 59 1 68 11 8
11 11 134 9 473 l-3 459 -65 3 c-36 2 -69 0 -73 -4z m121 -466 l2 -448 -55 0
-55 0 0 41 0 41 -28 -29 c-89 -96 -249 -97 -343 -3 -62 62 -84 126 -83 245 2
191 94 310 248 322 75 6 125 -8 172 -49 l34 -30 0 174 c0 96 3 178 7 182 4 4
28 6 53 4 l45 -3 3 -447z"/>
<path d="M8060 3081 c-19 -10 -48 -39 -64 -65 -24 -38 -30 -61 -34 -124 -5
-91 9 -149 45 -193 61 -72 173 -79 242 -16 45 42 61 93 61 203 0 114 -14 147
-79 191 -43 29 -121 31 -171 4z m168 -28 c46 -33 62 -78 62 -173 0 -143 -52
-215 -155 -215 -90 0 -142 59 -152 173 -10 104 28 188 102 231 28 16 112 7
143 -16z"/>
<path d="M628 3431 c-78 -25 -117 -52 -181 -121 -87 -93 -123 -214 -114 -375
11 -191 94 -309 266 -377 47 -19 76 -22 181 -23 115 0 130 2 180 26 78 37 133
81 169 133 47 68 43 78 -45 120 -113 54 -117 54 -144 11 -68 -110 -265 -95
-328 27 -65 127 -20 307 91 365 18 9 54 15 84 15 64 0 112 -27 139 -77 12 -24
26 -35 40 -35 33 0 185 60 190 75 17 43 -102 181 -194 223 -49 23 -72 27 -167
29 -86 2 -122 -1 -167 -16z m273 -17 c95 -27 179 -97 227 -190 11 -20 6 -23
-75 -54 -83 -32 -88 -32 -98 -14 -22 40 -73 82 -110 93 -60 16 -95 13 -152
-14 -92 -42 -139 -141 -131 -276 5 -92 34 -150 96 -194 38 -26 54 -30 120 -33
65 -2 83 1 117 20 22 13 49 37 60 54 l21 31 82 -38 c45 -21 82 -41 82 -45 0
-15 -66 -92 -106 -123 -87 -66 -225 -95 -348 -72 -225 42 -353 220 -331 461
14 161 77 275 195 350 89 57 241 76 351 44z"/>
<path d="M3625 3378 c-27 -5 -74 -13 -102 -19 l-53 -10 0 -74 0 -74 -47 -3
-48 -3 0 -90 0 -90 48 -3 47 -3 0 -167 c0 -179 10 -223 58 -265 73 -66 268
-60 332 8 l23 25 -38 55 c-46 68 -62 78 -95 60 -44 -24 -50 -7 -50 146 l0 139
63 0 c36 0 68 5 75 12 16 16 16 150 0 166 -7 7 -39 12 -75 12 l-63 0 0 84 c0
55 -4 87 -12 93 -8 6 -33 6 -63 1z m55 -108 l0 -90 70 0 70 0 0 -75 0 -75 -70
0 -70 0 0 -153 c0 -191 8 -206 90 -174 18 7 84 -77 77 -97 -11 -28 -81 -51
-157 -51 -96 0 -145 23 -177 85 -21 40 -23 55 -23 217 l0 173 -50 0 -50 0 0
75 0 75 50 0 50 0 0 74 0 75 53 10 c28 5 61 12 72 14 65 15 65 15 65 -83z"/>
<path d="M1369 3191 c-91 -36 -180 -118 -161 -147 11 -16 128 -84 145 -84 8 0
31 16 50 35 29 29 42 35 76 35 39 0 81 -25 81 -49 0 -5 -35 -12 -77 -15 -43
-4 -102 -14 -131 -22 -60 -17 -128 -72 -149 -121 -16 -39 -17 -131 -2 -170 40
-106 198 -157 311 -100 44 22 46 22 57 5 10 -16 23 -18 109 -16 l97 3 3 228
c1 133 -2 244 -8 266 -15 57 -50 102 -104 135 -45 28 -57 31 -150 33 -80 3
-111 -1 -147 -16z m277 -32 c34 -18 58 -40 79 -74 l30 -48 3 -234 3 -233 -90
0 c-90 0 -91 0 -91 25 l0 24 -49 -30 c-181 -113 -387 41 -302 226 38 82 92
110 246 127 97 10 105 13 105 32 0 55 -67 94 -129 76 -19 -5 -49 -23 -66 -40
l-32 -31 -62 36 c-33 20 -61 40 -61 44 0 11 72 76 102 92 87 47 232 50 314 8z"/>
<path d="M1453 2820 c-47 -11 -63 -28 -63 -66 0 -58 66 -82 130 -49 33 17 60
61 60 100 0 23 -3 25 -47 24 -27 -1 -63 -5 -80 -9z"/>
<path d="M2370 3193 c-67 -24 -161 -122 -183 -192 -22 -69 -23 -211 -1 -274
22 -65 91 -139 156 -167 79 -35 213 -39 290 -10 63 23 158 102 158 130 0 20
-128 100 -159 100 -9 0 -30 -13 -46 -30 -35 -37 -73 -45 -118 -26 -30 12 -57
41 -57 60 0 3 84 7 188 8 l187 3 0 105 c0 95 -3 111 -28 162 -51 104 -132 149
-266 147 -42 0 -96 -8 -121 -16z m253 -28 c93 -44 137 -123 145 -257 l5 -88
-197 0 c-216 0 -213 1 -181 -61 19 -37 70 -69 108 -69 37 0 94 27 112 53 13
19 15 19 79 -17 36 -20 68 -40 70 -45 9 -13 -71 -81 -123 -105 -37 -17 -65
-21 -141 -21 -84 0 -102 3 -152 28 -116 57 -164 152 -156 307 4 65 11 97 31
136 32 64 106 130 166 149 61 20 183 14 234 -10z"/>
<path d="M2450 3048 c-26 -14 -70 -73 -70 -94 0 -11 24 -14 106 -14 l107 0 -6
37 c-4 20 -15 45 -25 55 -24 24 -81 32 -112 16z"/>
<path d="M2990 3197 c-19 -6 -56 -32 -81 -58 -38 -37 -49 -56 -58 -101 -32
-152 48 -239 252 -273 21 -3 41 -13 44 -22 18 -45 -96 -42 -162 6 -24 17 -50
31 -58 31 -16 0 -107 -116 -107 -136 0 -24 76 -75 143 -96 99 -30 212 -23 286
17 64 35 95 74 111 137 33 130 -35 232 -176 264 -107 24 -119 28 -122 47 -6
28 72 23 127 -10 l45 -26 53 59 c70 78 69 98 -11 138 -51 27 -70 31 -155 33
-53 1 -112 -3 -131 -10z m261 -34 c73 -33 76 -42 27 -102 -23 -28 -45 -51 -49
-51 -4 0 -24 9 -43 21 -47 27 -124 30 -142 4 -30 -40 -5 -62 90 -80 150 -29
206 -81 206 -192 0 -70 -13 -104 -57 -144 -54 -51 -91 -63 -188 -64 -102 0
-172 19 -224 63 l-33 27 32 40 c18 22 38 48 45 58 12 17 15 16 59 -14 38 -27
58 -34 110 -37 60 -4 65 -3 82 23 16 25 16 27 -2 45 -11 11 -51 26 -92 35
-143 30 -194 75 -200 180 -6 99 38 165 137 202 50 19 185 11 242 -14z"/>
<path d="M4383 3190 c-64 -26 -153 -103 -153 -133 0 -16 17 -32 65 -59 68 -41
99 -47 109 -23 9 24 68 55 104 55 30 0 72 -28 72 -49 0 -5 -35 -12 -77 -15
-153 -14 -230 -52 -274 -137 -21 -43 -26 -130 -8 -176 39 -104 192 -155 308
-103 40 19 46 19 61 5 14 -12 37 -15 111 -13 l94 3 3 235 c3 256 -2 288 -55
351 -46 54 -96 73 -208 76 -82 3 -109 -1 -152 -17z m282 -31 c35 -18 59 -39
80 -74 l30 -48 3 -234 3 -233 -90 0 c-90 0 -91 0 -91 25 l0 24 -49 -30 c-179
-112 -384 40 -303 224 37 84 106 117 280 132 70 7 72 8 72 34 0 31 -32 65 -71
74 -38 9 -88 -8 -124 -43 l-32 -31 -61 37 c-34 20 -62 40 -62 44 0 10 73 75
102 91 87 47 231 51 313 8z"/>
<path d="M4473 2820 c-47 -11 -63 -28 -63 -66 0 -58 66 -82 130 -49 33 17 60
61 60 100 0 23 -3 25 -47 24 -27 -1 -63 -5 -80 -9z"/>
<path d="M6603 3190 c-111 -44 -181 -151 -190 -291 -11 -154 45 -272 158 -334
50 -28 61 -30 159 -30 95 0 110 3 156 27 111 59 164 159 164 313 0 151 -45
242 -149 303 -40 23 -58 27 -146 29 -82 3 -110 -1 -152 -17z m243 -15 c112
-33 175 -129 182 -275 8 -156 -42 -258 -150 -313 -106 -55 -242 -45 -335 23
-83 61 -126 200 -103 330 28 156 136 247 296 249 33 1 83 -6 110 -14z"/>
<path d="M6655 3086 c-41 -18 -92 -77 -104 -123 -17 -61 -13 -163 8 -208 35
-76 95 -115 177 -115 129 0 208 112 190 270 -15 123 -81 190 -187 190 -30 -1
-68 -7 -84 -14z m142 -17 c72 -27 105 -90 105 -200 1 -85 -23 -145 -73 -181
-60 -45 -172 -28 -223 33 -63 75 -60 235 7 307 43 48 122 65 184 41z"/>
<path d="M7364 3196 c-18 -8 -35 -19 -39 -26 -5 -8 -12 -5 -22 10 -13 18 -23
21 -76 18 l-62 -3 -3 -314 c-2 -223 1 -318 9 -327 14 -17 110 -19 127 -2 8 8
12 68 12 203 0 184 1 193 25 241 29 59 57 77 122 78 l48 1 9 52 c13 76 7 83
-61 83 -32 -1 -72 -7 -89 -14z m132 -37 c-3 -17 -6 -39 -6 -48 0 -13 -10 -16
-49 -16 -62 0 -96 -24 -130 -91 -24 -46 -26 -60 -29 -241 l-4 -193 -49 0 -49
0 0 305 0 305 50 0 50 0 0 -57 0 -57 29 45 c34 54 79 78 145 79 l49 0 -7 -31z"/>
<path d="M3927 3194 c-4 -4 -7 -148 -7 -319 0 -256 3 -315 14 -324 9 -8 48
-11 112 -9 l99 3 0 325 0 325 -106 3 c-58 1 -108 -1 -112 -4z m203 -319 l0
-305 -95 0 -95 0 0 305 0 305 95 0 95 0 0 -305z"/>
<path d="M5502 3188 c-7 -9 17 -102 83 -319 51 -169 95 -312 99 -318 10 -15
121 -14 133 2 6 6 37 99 69 205 32 106 60 189 61 185 2 -5 28 -93 58 -197 30
-105 60 -193 67 -198 22 -13 114 -9 127 6 17 20 193 616 187 632 -7 18 -119
20 -134 2 -5 -7 -34 -102 -63 -211 -29 -108 -54 -196 -55 -194 -2 2 -26 88
-55 192 -28 105 -55 198 -61 208 -6 13 -21 17 -61 17 -29 0 -58 -5 -64 -11 -6
-6 -37 -98 -69 -205 -32 -107 -61 -194 -65 -194 -3 0 -29 87 -58 193 -29 105
-57 198 -63 205 -6 7 -34 12 -68 12 -34 0 -62 -5 -68 -12z m189 -258 c66 -241
67 -244 78 -205 6 22 40 132 74 245 l63 205 46 3 c45 3 47 2 56 -30 5 -18 35
-130 68 -249 l59 -215 65 245 66 246 49 0 c28 0 49 -4 49 -10 -1 -5 -41 -142
-90 -303 l-87 -293 -55 3 -55 3 -65 228 -65 229 -71 -229 -71 -228 -54 0 -53
0 -84 275 c-46 151 -86 288 -90 303 l-6 28 54 -3 53 -3 66 -245z"/>
<path d="M8545 2655 c-50 -49 -15 -135 55 -135 41 0 80 39 80 80 0 41 -39 80
-80 80 -19 0 -40 -9 -55 -25z"/>
</g>
</svg>
